# xmcd CD database file
# Copyright (C) 1993-1998 Ti Kan
#
# Track frame offsets:
#  182
#  550
#  27855
#  42445
#  60657
#  76747
#  89627
#  102927
#  112525
#  112877
#  135660
#  151050
#  162237
#  181510
#  195380
#  216757
#
# Disc length: 2940 seconds
#
# Revision: 1
# Processed by: cddbd v1.4b41PL1 Copyright (c) Steve Scherf et al.
# Submitted via: CDWizzard Release:4.35
#
DISCID=b40b7a10
DTITLE=Glenn Miller - Christmas Time at Cafe Rouge
DYEAR=1900
DGENRE=
TTITLE0=Introduction
TTITLE1=Daisy Mae (May)
TTITLE2=Helpless (Lathrop)
TTITLE3=Song of the Volga Boatmen (Folk)
TTITLE4=Falling Leaves (Carle-David)
TTITLE5=Are you Jumpin' Jack (Finegan)
TTITLE6=I Do, Do You? (Quading)
TTITLE7=Broadcast Closing
TTITLE8=Introduction
TTITLE9=Song of the Volga Boatmen (Folk)
TTITLE10=You Walk By (Raleigh-Wayne)
TTITLE11=There I Go (Zaret-Meisner)
TTITLE12=Oh! So Good (Gray)
TTITLE13=A Stone's Throw From Heaven (Ray-Burton_Green)
TTITLE14=I Dreamt I Dwelt in Harlem (Wright-Smith-Ware)
TTITLE15=Broadcast Closing
EXTD=
EXTT0=
EXTT1=
EXTT2=
EXTT3=
EXTT4=
EXTT5=
EXTT6=
EXTT7=
EXTT8=
EXTT9=
EXTT10=
EXTT11=
EXTT12=
EXTT13=
EXTT14=
EXTT15=
PLAYORDER=
